<svg height="512pt" viewBox="-90 0 512 512.001" width="512pt" xmlns="http://www.w3.org/2000/svg"><path d="m258.605469 0c-40.046875 0-72.625 32.578125-72.625 72.625 0 29.421875 17.667969 55.671875 44.5 66.941406v229.070313c0 48.035156-39.082031 87.113281-87.117188 87.113281-39.316406 0-73.054687-26.394531-83.65625-62.777344l10.582031 8.339844c12.179688 9.601562 29.898438 7.507812 39.5-4.671875 9.601563-12.175781 7.507813-29.898437-4.671874-39.5l-59.578126-46.972656c-8.402343-6.628907-20.058593-7.890625-29.6875-3.222657-9.628906 4.671876-15.851562 14.605469-15.851562 25.308594v36.382813c0 79.050781 64.3125 143.363281 143.363281 143.363281 79.054688 0 143.367188-64.3125 143.367188-143.363281v-229.074219c26.828125-11.265625 44.496093-37.515625 44.496093-66.9375.003907-40.046875-32.578124-72.625-72.621093-72.625zm0 96.507812c-13.171875 0-23.886719-10.714843-23.886719-23.882812 0-13.171875 10.714844-23.886719 23.886719-23.886719s23.886719 10.714844 23.886719 23.886719c0 13.167969-10.714844 23.882812-23.886719 23.882812zm0 0" fill="#d8d1d7"/><g fill="#cac0c9"><path d="m258.605469 0c-4.621094 0-9.140625.453125-13.523438 1.28125 33.605469 6.355469 59.105469 35.921875 59.105469 71.34375 0 28.144531-16.167969 53.386719-41.058594 65.390625-2.09375 1.007813-3.441406 3.101563-3.441406 5.421875v225.199219c0 74.492187-57.109375 135.882812-129.84375 142.722656 4.453125.417969 8.960938.640625 13.519531.640625 79.054688 0 143.367188-64.3125 143.367188-143.363281v-229.074219c26.828125-11.265625 44.496093-37.515625 44.496093-66.9375.003907-40.046875-32.578124-72.625-72.621093-72.625zm0 0"/><path d="m18.496094 310.167969 59.578125 46.972656c12.179687 9.601563 14.273437 27.320313 4.671875 39.5-2.410156 3.0625-5.339844 5.484375-8.558594 7.246094 11.820312 6.488281 26.980469 3.6875 35.601562-7.246094 9.601563-12.175781 7.507813-29.898437-4.671874-39.5l-59.578126-46.972656c-8.402343-6.628907-20.058593-7.890625-29.6875-3.222657-.425781.210938-.839843.441407-1.253906.667969 1.359375.738281 2.667969 1.582031 3.898438 2.554688zm0 0"/></g></svg>